<svg height="512pt" viewBox="-91 0 512 512.00015" width="512pt" xmlns="http://www.w3.org/2000/svg"><path style="fill:white;"  d="m300.007812 417.027344v-17.949219c0-28.589844-15.890624-54.292969-41.460937-67.082031l-48.542969-24.269532v-90.652343c0-23.898438-11.109375-45.78125-29.699218-59.789063.96875-5.28125 4.199218-9.722656 8.398437-11.121094 30.691406-10.210937 51.300781-38.8125 51.300781-71.171874 0-46.355469-41.417968-81.472657-87.492187-73.980469-35.628907 5.789062-62.511719 38.980469-62.511719 77.191406v50.699219c-37.386719 39.558594-60 93.15625-60 150.941406v84.722656c0 22.453125 6.261719 43.941406 17.949219 62.480469-28.027344 10.871094-47.949219 38.132813-47.949219 69.953125v15h285.003906c24.8125 0 45.003906-20.191406 45.003906-45 0-21.199219-11.742187-40.273438-30-49.972656zm-51.972656-56.609375c13.628906 8.089843 21.96875 22.621093 21.96875 38.660156v7.109375l-33.980468-11.328125zm-128.03125-282.214844c0-23.660156 16.046875-44.121094 37.328125-47.582031 28.785157-4.6875 52.671875 17.464844 52.671875 44.371094 0 19.417968-12.371094 36.582031-30.769531 42.710937-11.839844 3.9375-21.042969 13.109375-25.75 24.761719l-33.480469-16.742188zm-60.003906 201.640625c0-47.117188 17.0625-91.621094 48.253906-126.449219l46.871094 23.429688c15.347656 7.667969 24.878906 23.101562 24.878906 40.25v109.191406l41.011719 20.511719-13.453125 38.601562-57.558594-19.191406v-141.191406h-30v162.8125l45.4375 15.148437c-20.007812 22.210938-51.679687 31.152344-81.210937 21.3125l-.949219-.320312c-15.03125-16.210938-23.28125-37.152344-23.28125-59.382813zm225.003906 202.15625h-252.433594c5.949219-16.789062 21.601563-29.019531 40.179688-29.941406 1.332031.335937 15.402344 6.191406 35.914062 6.191406 34.207032 0 66.878907-16.519531 87.039063-45.210938l86.101563 28.699219c10.882812 3.628907 18.203124 13.78125 18.203124 25.261719 0 8.269531-6.730468 15-15.003906 15zm0 0"/></svg>